<svg xmlns="http://www.w3.org/2000/svg" width="30" height="30" viewBox="0 0 30 30">
  <g fill="none" fill-rule="evenodd">
    <path fill="#D8B4F8" d="M29.063 15c0 7.766-6.296 14.063-14.063 14.063C7.234 29.063.937 22.765.937 15 .937 7.234 7.234.937 15 .937 22.767.937 29.063 7.234 29.063 15z"/>
    <path fill="#231F20" fill-rule="nonzero" d="M28.125 15C28.125 7.75 22.25 1.875 15 1.875S1.875 7.75 1.875 15 7.75 28.125 15 28.125c7.25 0 13.125-5.876 13.125-13.125zM30 15c0 8.284-6.715 15-15 15-8.284 0-15-6.716-15-15C0 6.716 6.716 0 15 0c8.285 0 15 6.716 15 15zm-8.31 6.392h-1.875a4.815 4.815 0 1 0-9.63 0H8.31a6.69 6.69 0 0 1 13.38 0zm-1.576-11.186a1.598 1.598 0 1 1-3.196 0 1.598 1.598 0 0 1 3.196 0m-7.032 0a1.598 1.598 0 1 1-3.195 0 1.598 1.598 0 0 1 3.195 0"/>
  </g>
</svg>